<svg xmlns="http://www.w3.org/2000/svg" width="1200" height="700"><rect width="1200" height="700" fill="#f8f5f0"/><text x="50" y="60" font-family="Arial" font-size="32" font-weight="700">LOOKDO · Door Installation</text><text x="50" y="95" font-family="Arial" font-size="18">opening / measurement flow · accent is tenant-selectable</text><g fill="white" stroke="#332c25" stroke-width="4"><rect x="70" y="130" width="300" height="520" rx="35"/><rect x="450" y="130" width="300" height="520" rx="35"/><rect x="830" y="130" width="300" height="520" rx="35"/></g><g font-family="Arial"><text x="100" y="185" font-size="23" font-weight="700">DOORS</text><rect x="135" y="225" width="170" height="190" fill="#e7ddd0"/><rect x="155" y="245" width="130" height="170" fill="#fff"/><rect x="100" y="450" width="240" height="60" rx="18" fill="#a66a32"/><text x="135" y="488" font-size="19" fill="white">Show doorway</text><text x="480" y="185" font-size="23" font-weight="700">MEASURE</text><text x="490" y="250" font-size="18">Full opening</text><text x="490" y="310" font-size="18">Width / height</text><text x="490" y="370" font-size="18">Wall / threshold</text><text x="860" y="185" font-size="23" font-weight="700">REQUEST</text><text x="860" y="250" font-size="18">Interior door</text><text x="860" y="290" font-size="18">4 photos · sizes</text></g><circle cx="1130" cy="60" r="15" fill="#a66a32"/><circle cx="1090" cy="60" r="15" fill="#356f9f"/><circle cx="1050" cy="60" r="15" fill="#6d7950"/></svg>