<svg xmlns="http://www.w3.org/2000/svg" width="1200" height="700"><rect width="1200" height="700" fill="#f1f7f7"/><text x="50" y="60" font-family="Arial" font-size="32" font-weight="700">LOOKDO · Appliance Repair</text><text x="50" y="95" font-family="Arial" font-size="18">diagnostic-first UI · accent is tenant-selectable</text><g fill="white" stroke="#18383d" stroke-width="4"><rect x="70" y="130" width="300" height="520" rx="35"/><rect x="450" y="130" width="300" height="520" rx="35"/><rect x="830" y="130" width="300" height="520" rx="35"/></g><g font-family="Arial"><text x="100" y="185" font-size="23" font-weight="700">REPAIR</text><rect x="100" y="220" width="240" height="140" rx="18" fill="#dceaea"/><text x="140" y="295" font-size="20">Appliance hero</text><rect x="100" y="400" width="240" height="60" rx="18" fill="#087f8c"/><text x="130" y="438" font-size="19" fill="white">Show malfunction</text><text x="480" y="185" font-size="23" font-weight="700">DIAGNOSIS</text><text x="490" y="250" font-size="18">Full appliance</text><text x="490" y="310" font-size="18">Model label</text><text x="490" y="370" font-size="18">Error / video</text><text x="860" y="185" font-size="23" font-weight="700">REQUEST</text><text x="860" y="250" font-size="18">Bosch washer</text><text x="860" y="290" font-size="18">Does not drain</text></g><circle cx="1130" cy="60" r="15" fill="#087f8c"/><circle cx="1090" cy="60" r="15" fill="#7557a8"/><circle cx="1050" cy="60" r="15" fill="#d17a22"/></svg>